<?xml version="1.0" encoding="UTF-8" standalone="no"?>
<!DOCTYPE svg PUBLIC "-//W3C//DTD SVG 1.1//EN"
 "http://www.w3.org/Graphics/SVG/1.1/DTD/svg11.dtd">
<!-- Generated by graphviz version 2.47.3 (20210619.1520)
 -->
<!-- Title: dependencies Pages: 1 -->
<svg width="2102pt" height="247pt"
 viewBox="0.00 0.00 2102.00 246.80" xmlns="http://www.w3.org/2000/svg" xmlns:xlink="http://www.w3.org/1999/xlink">
<g id="graph0" class="graph" transform="scale(1 1) rotate(0) translate(4 242.8)">
<title>dependencies</title>
<polygon fill="white" stroke="transparent" points="-4,4 -4,-242.8 2098,-242.8 2098,4 -4,4"/>
<text text-anchor="middle" x="1047" y="-8.2" font-family="sans-serif" font-size="14.00">dependencies</text>
<g id="clust1" class="cluster">
<title>cluster_AppModule</title>
<polygon fill="none" stroke="black" stroke-dasharray="1,5" points="8,-32.8 8,-230.8 2086,-230.8 2086,-32.8 8,-32.8"/>
</g>
<g id="clust16" class="cluster">
<title>cluster_AppModule_imports</title>
<polygon fill="none" stroke="black" points="1934,-40.8 1934,-92.8 2078,-92.8 2078,-40.8 1934,-40.8"/>
</g>
<g id="clust18" class="cluster">
<title>cluster_AppModule_bootstrap</title>
<polygon fill="none" stroke="black" points="1055,-170.8 1055,-222.8 1179,-222.8 1179,-170.8 1055,-170.8"/>
</g>
<g id="clust2" class="cluster">
<title>cluster_AppModule_declarations</title>
<polygon fill="none" stroke="black" points="16,-40.8 16,-92.8 1926,-92.8 1926,-40.8 16,-40.8"/>
</g>
<!-- AlertaComponent -->
<g id="node1" class="node">
<title>AlertaComponent</title>
<polygon fill="#ffffb3" stroke="black" points="1918.31,-84.8 1801.69,-84.8 1801.69,-48.8 1918.31,-48.8 1918.31,-84.8"/>
<text text-anchor="middle" x="1860" y="-62.6" font-family="Times,serif" font-size="14.00">AlertaComponent</text>
</g>
<!-- AppModule -->
<g id="node14" class="node">
<title>AppModule</title>
<polygon fill="#8dd3c7" stroke="black" points="1158.66,-149.8 1155.66,-153.8 1134.66,-153.8 1131.66,-149.8 1075.34,-149.8 1075.34,-113.8 1158.66,-113.8 1158.66,-149.8"/>
<text text-anchor="middle" x="1117" y="-127.6" font-family="Times,serif" font-size="14.00">AppModule</text>
</g>
<!-- AlertaComponent&#45;&gt;AppModule -->
<g id="edge1" class="edge">
<title>AlertaComponent&#45;&gt;AppModule</title>
<path fill="none" stroke="black" d="M1860,-84.84C1860,-106.46 1860,-139.8 1860,-139.8 1860,-139.8 1168.81,-139.8 1168.81,-139.8"/>
<polygon fill="black" stroke="black" points="1168.81,-136.3 1158.81,-139.8 1168.81,-143.3 1168.81,-136.3"/>
</g>
<!-- AppComponent -->
<g id="node2" class="node">
<title>AppComponent</title>
<polygon fill="#ffffb3" stroke="black" points="1783.94,-84.8 1678.06,-84.8 1678.06,-48.8 1783.94,-48.8 1783.94,-84.8"/>
<text text-anchor="middle" x="1731" y="-62.6" font-family="Times,serif" font-size="14.00">AppComponent</text>
</g>
<!-- AppComponent&#45;&gt;AppModule -->
<g id="edge2" class="edge">
<title>AppComponent&#45;&gt;AppModule</title>
<path fill="none" stroke="black" d="M1731,-85.02C1731,-105.17 1731,-134.8 1731,-134.8 1731,-134.8 1168.72,-134.8 1168.72,-134.8"/>
<polygon fill="black" stroke="black" points="1168.72,-131.3 1158.72,-134.8 1168.72,-138.3 1168.72,-131.3"/>
</g>
<!-- CadastrarComponent -->
<g id="node3" class="node">
<title>CadastrarComponent</title>
<polygon fill="#ffffb3" stroke="black" points="1660.47,-84.8 1525.53,-84.8 1525.53,-48.8 1660.47,-48.8 1660.47,-84.8"/>
<text text-anchor="middle" x="1593" y="-62.6" font-family="Times,serif" font-size="14.00">CadastrarComponent</text>
</g>
<!-- CadastrarComponent&#45;&gt;AppModule -->
<g id="edge3" class="edge">
<title>CadastrarComponent&#45;&gt;AppModule</title>
<path fill="none" stroke="black" d="M1593,-85.02C1593,-103.63 1593,-129.8 1593,-129.8 1593,-129.8 1168.82,-129.8 1168.82,-129.8"/>
<polygon fill="black" stroke="black" points="1168.82,-126.3 1158.82,-129.8 1168.82,-133.3 1168.82,-126.3"/>
</g>
<!-- FooterComponent -->
<g id="node4" class="node">
<title>FooterComponent</title>
<polygon fill="#ffffb3" stroke="black" points="1507.88,-84.8 1390.12,-84.8 1390.12,-48.8 1507.88,-48.8 1507.88,-84.8"/>
<text text-anchor="middle" x="1449" y="-62.6" font-family="Times,serif" font-size="14.00">FooterComponent</text>
</g>
<!-- FooterComponent&#45;&gt;AppModule -->
<g id="edge4" class="edge">
<title>FooterComponent&#45;&gt;AppModule</title>
<path fill="none" stroke="black" d="M1449,-84.83C1449,-101.86 1449,-124.8 1449,-124.8 1449,-124.8 1168.71,-124.8 1168.71,-124.8"/>
<polygon fill="black" stroke="black" points="1168.71,-121.3 1158.71,-124.8 1168.71,-128.3 1168.71,-121.3"/>
</g>
<!-- InicioComponent -->
<g id="node5" class="node">
<title>InicioComponent</title>
<polygon fill="#ffffb3" stroke="black" points="1371.99,-84.8 1258.01,-84.8 1258.01,-48.8 1371.99,-48.8 1371.99,-84.8"/>
<text text-anchor="middle" x="1315" y="-62.6" font-family="Times,serif" font-size="14.00">InicioComponent</text>
</g>
<!-- InicioComponent&#45;&gt;AppModule -->
<g id="edge5" class="edge">
<title>InicioComponent&#45;&gt;AppModule</title>
<path fill="none" stroke="black" d="M1315,-85.04C1315,-100.37 1315,-119.8 1315,-119.8 1315,-119.8 1168.99,-119.8 1168.99,-119.8"/>
<polygon fill="black" stroke="black" points="1168.99,-116.3 1158.99,-119.8 1168.99,-123.3 1168.99,-116.3"/>
</g>
<!-- LoginComponent -->
<g id="node6" class="node">
<title>LoginComponent</title>
<polygon fill="#ffffb3" stroke="black" points="1240.28,-84.8 1125.72,-84.8 1125.72,-48.8 1240.28,-48.8 1240.28,-84.8"/>
<text text-anchor="middle" x="1183" y="-62.6" font-family="Times,serif" font-size="14.00">LoginComponent</text>
</g>
<!-- LoginComponent&#45;&gt;AppModule -->
<g id="edge6" class="edge">
<title>LoginComponent&#45;&gt;AppModule</title>
<path fill="none" stroke="black" d="M1142.22,-84.91C1142.22,-84.91 1142.22,-103.79 1142.22,-103.79"/>
<polygon fill="black" stroke="black" points="1138.72,-103.79 1142.22,-113.79 1145.72,-103.79 1138.72,-103.79"/>
</g>
<!-- MenuComponent -->
<g id="node7" class="node">
<title>MenuComponent</title>
<polygon fill="#ffffb3" stroke="black" points="1107.99,-84.8 994.01,-84.8 994.01,-48.8 1107.99,-48.8 1107.99,-84.8"/>
<text text-anchor="middle" x="1051" y="-62.6" font-family="Times,serif" font-size="14.00">MenuComponent</text>
</g>
<!-- MenuComponent&#45;&gt;AppModule -->
<g id="edge7" class="edge">
<title>MenuComponent&#45;&gt;AppModule</title>
<path fill="none" stroke="black" d="M1091.58,-84.91C1091.58,-84.91 1091.58,-103.79 1091.58,-103.79"/>
<polygon fill="black" stroke="black" points="1088.08,-103.79 1091.58,-113.79 1095.08,-103.79 1088.08,-103.79"/>
</g>
<!-- PostagemDeleteComponent -->
<g id="node8" class="node">
<title>PostagemDeleteComponent</title>
<polygon fill="#ffffb3" stroke="black" points="976.3,-84.8 803.7,-84.8 803.7,-48.8 976.3,-48.8 976.3,-84.8"/>
<text text-anchor="middle" x="890" y="-62.6" font-family="Times,serif" font-size="14.00">PostagemDeleteComponent</text>
</g>
<!-- PostagemDeleteComponent&#45;&gt;AppModule -->
<g id="edge8" class="edge">
<title>PostagemDeleteComponent&#45;&gt;AppModule</title>
<path fill="none" stroke="black" d="M890,-85.04C890,-100.37 890,-119.8 890,-119.8 890,-119.8 1065.1,-119.8 1065.1,-119.8"/>
<polygon fill="black" stroke="black" points="1065.1,-123.3 1075.1,-119.8 1065.1,-116.3 1065.1,-123.3"/>
</g>
<!-- PostagemEditComponent -->
<g id="node9" class="node">
<title>PostagemEditComponent</title>
<polygon fill="#ffffb3" stroke="black" points="785.6,-84.8 626.4,-84.8 626.4,-48.8 785.6,-48.8 785.6,-84.8"/>
<text text-anchor="middle" x="706" y="-62.6" font-family="Times,serif" font-size="14.00">PostagemEditComponent</text>
</g>
<!-- PostagemEditComponent&#45;&gt;AppModule -->
<g id="edge9" class="edge">
<title>PostagemEditComponent&#45;&gt;AppModule</title>
<path fill="none" stroke="black" d="M706,-84.83C706,-101.86 706,-124.8 706,-124.8 706,-124.8 1065.33,-124.8 1065.33,-124.8"/>
<polygon fill="black" stroke="black" points="1065.33,-128.3 1075.33,-124.8 1065.33,-121.3 1065.33,-128.3"/>
</g>
<!-- TemaComponent -->
<g id="node10" class="node">
<title>TemaComponent</title>
<polygon fill="#ffffb3" stroke="black" points="608.7,-84.8 495.3,-84.8 495.3,-48.8 608.7,-48.8 608.7,-84.8"/>
<text text-anchor="middle" x="552" y="-62.6" font-family="Times,serif" font-size="14.00">TemaComponent</text>
</g>
<!-- TemaComponent&#45;&gt;AppModule -->
<g id="edge10" class="edge">
<title>TemaComponent&#45;&gt;AppModule</title>
<path fill="none" stroke="black" d="M552,-85.02C552,-103.63 552,-129.8 552,-129.8 552,-129.8 1064.99,-129.8 1064.99,-129.8"/>
<polygon fill="black" stroke="black" points="1064.99,-133.3 1074.99,-129.8 1064.99,-126.3 1064.99,-133.3"/>
</g>
<!-- TemaDeleteComponent -->
<g id="node11" class="node">
<title>TemaDeleteComponent</title>
<polygon fill="#ffffb3" stroke="black" points="477.74,-84.8 328.26,-84.8 328.26,-48.8 477.74,-48.8 477.74,-84.8"/>
<text text-anchor="middle" x="403" y="-62.6" font-family="Times,serif" font-size="14.00">TemaDeleteComponent</text>
</g>
<!-- TemaDeleteComponent&#45;&gt;AppModule -->
<g id="edge11" class="edge">
<title>TemaDeleteComponent&#45;&gt;AppModule</title>
<path fill="none" stroke="black" d="M403,-85.02C403,-105.17 403,-134.8 403,-134.8 403,-134.8 1065.26,-134.8 1065.26,-134.8"/>
<polygon fill="black" stroke="black" points="1065.26,-138.3 1075.26,-134.8 1065.26,-131.3 1065.26,-138.3"/>
</g>
<!-- TemaEditComponent -->
<g id="node12" class="node">
<title>TemaEditComponent</title>
<polygon fill="#ffffb3" stroke="black" points="310.04,-84.8 173.96,-84.8 173.96,-48.8 310.04,-48.8 310.04,-84.8"/>
<text text-anchor="middle" x="242" y="-62.6" font-family="Times,serif" font-size="14.00">TemaEditComponent</text>
</g>
<!-- TemaEditComponent&#45;&gt;AppModule -->
<g id="edge12" class="edge">
<title>TemaEditComponent&#45;&gt;AppModule</title>
<path fill="none" stroke="black" d="M242,-84.84C242,-106.46 242,-139.8 242,-139.8 242,-139.8 1065.09,-139.8 1065.09,-139.8"/>
<polygon fill="black" stroke="black" points="1065.09,-143.3 1075.09,-139.8 1065.09,-136.3 1065.09,-143.3"/>
</g>
<!-- UserEditComponent -->
<g id="node13" class="node">
<title>UserEditComponent</title>
<polygon fill="#ffffb3" stroke="black" points="155.59,-84.8 24.41,-84.8 24.41,-48.8 155.59,-48.8 155.59,-84.8"/>
<text text-anchor="middle" x="90" y="-62.6" font-family="Times,serif" font-size="14.00">UserEditComponent</text>
</g>
<!-- UserEditComponent&#45;&gt;AppModule -->
<g id="edge13" class="edge">
<title>UserEditComponent&#45;&gt;AppModule</title>
<path fill="none" stroke="black" d="M90,-84.89C90,-107.93 90,-144.8 90,-144.8 90,-144.8 1065.15,-144.8 1065.15,-144.8"/>
<polygon fill="black" stroke="black" points="1065.15,-148.3 1075.15,-144.8 1065.15,-141.3 1065.15,-148.3"/>
</g>
<!-- AppComponent  -->
<g id="node16" class="node">
<title>AppComponent </title>
<polygon fill="#80b1d3" stroke="black" points="1171.44,-214.8 1062.56,-214.8 1062.56,-178.8 1171.44,-178.8 1171.44,-214.8"/>
<text text-anchor="middle" x="1117" y="-192.6" font-family="Times,serif" font-size="14.00">AppComponent </text>
</g>
<!-- AppModule&#45;&gt;AppComponent  -->
<g id="edge15" class="edge">
<title>AppModule&#45;&gt;AppComponent </title>
<path fill="none" stroke="black" stroke-dasharray="1,5" d="M1117,-149.91C1117,-149.91 1117,-168.79 1117,-168.79"/>
<polygon fill="black" stroke="black" points="1113.5,-168.79 1117,-178.79 1120.5,-168.79 1113.5,-168.79"/>
</g>
<!-- AppRoutingModule -->
<g id="node15" class="node">
<title>AppRoutingModule</title>
<polygon fill="#8dd3c7" stroke="black" points="2070.27,-84.8 2067.27,-88.8 2046.27,-88.8 2043.27,-84.8 1941.73,-84.8 1941.73,-48.8 2070.27,-48.8 2070.27,-84.8"/>
<text text-anchor="middle" x="2006" y="-62.6" font-family="Times,serif" font-size="14.00">AppRoutingModule</text>
</g>
<!-- AppRoutingModule&#45;&gt;AppModule -->
<g id="edge14" class="edge">
<title>AppRoutingModule&#45;&gt;AppModule</title>
<path fill="none" stroke="black" d="M2006,-84.89C2006,-107.93 2006,-144.8 2006,-144.8 2006,-144.8 1168.69,-144.8 1168.69,-144.8"/>
<polygon fill="black" stroke="black" points="1168.69,-141.3 1158.69,-144.8 1168.69,-148.3 1168.69,-141.3"/>
</g>
</g>
</svg>
